<svg width="13" height="9" viewBox="0 0 13 9" fill="none" xmlns="http://www.w3.org/2000/svg">
<path d="M8.46007 4.40371L12.1286 1.11383C12.2993 0.958642 12.3148 0.694831 12.1596 0.521026C12.0044 0.350324 11.7406 0.334806 11.5668 0.489989L6.50786 5.03065L5.5209 4.14921C5.51779 4.1461 5.51469 4.143 5.51469 4.1399C5.49297 4.11817 5.47124 4.09955 5.44641 4.08093L1.43027 0.486885C1.25647 0.331702 0.992654 0.34722 0.837471 0.521026C0.682288 0.694831 0.697806 0.958642 0.871612 1.11383L4.58359 4.43164L0.88713 7.89222C0.719532 8.05051 0.710221 8.31432 0.868508 8.48502C0.952307 8.57193 1.06404 8.61848 1.17577 8.61848C1.27819 8.61848 1.38061 8.58124 1.46131 8.50675L5.21364 4.99651L6.23164 5.90588C6.31233 5.97726 6.41165 6.0114 6.51097 6.0114C6.61028 6.0114 6.7127 5.97416 6.7903 5.90278L7.83623 4.96547L11.5668 8.50985C11.6475 8.58744 11.7531 8.62469 11.8555 8.62469C11.9672 8.62469 12.0758 8.58124 12.1596 8.49434C12.3179 8.32674 12.3117 8.05982 12.1441 7.90154L8.46007 4.40371Z" fill="#999999"/>
</svg>
